<?xml version="1.0" encoding="UTF-8"?>
<svg version="1.1" xmlns="http://www.w3.org/2000/svg" width="699" height="294">
<path d="M0 0 C8.84637162 7.25564792 14.3376502 16.35370527 16.12890625 27.74609375 C17.25190016 40.26471443 13.77713758 51.20156291 7.12890625 61.74609375 C7.90492188 62.44992188 8.6809375 63.15375 9.48046875 63.87890625 C16.23934078 70.04535876 22.79707442 76.36358035 29.23120117 82.86791992 C32.81981097 86.48078733 36.48671978 89.92282249 40.375 93.21484375 C43.44882809 95.89845313 46.28522084 98.82242969 49.12890625 101.74609375 C51.71666545 100.74000292 54.24455083 99.69077049 56.75 98.4921875 C68.53140682 93.01816353 79.86524857 92.33828635 92.12890625 96.74609375 C94.84704726 97.99376504 97.47178773 99.37008594 100.12890625 100.74609375 C104.0923676 101.16434374 104.0923676 101.16434374 106.38378906 98.92944336 C107.59566895 97.67659546 107.59566895 97.67659546 108.83203125 96.3984375 C109.73050781 95.48255859 110.62898438 94.56667969 111.5546875 93.62304688 C112.49661793 92.64373307 113.43802134 91.66391209 114.37890625 90.68359375 C125.31844534 79.42863897 125.31844534 79.42863897 131.31103516 74.30834961 C134.20198147 71.82390622 136.95896254 69.21504029 139.69140625 66.55859375 C140.50834961 65.79772461 140.50834961 65.79772461 141.34179688 65.02148438 C143.08167687 63.37917106 143.08167687 63.37917106 145.12890625 60.74609375 C145.27183011 58.67779354 145.27183011 58.67779354 144.12890625 56.74609375 C143.74734375 55.80894531 143.36578125 54.87179688 142.97265625 53.90625 C142.07777358 51.84333734 141.18194208 49.78083603 140.28515625 47.71875 C136.46080442 37.88654816 136.96710062 26.38395942 141.12890625 16.74609375 C146.68927551 5.55795682 154.74832195 -2.78780386 166.62890625 -7.06640625 C178.03043054 -10.14552161 190.4113159 -9.1725699 200.8984375 -3.84765625 C211.24719117 2.15490402 218.4058795 11.0607255 221.65722656 22.62524414 C224.13422618 33.76276777 222.75373345 46.25573961 216.7734375 55.94140625 C215.32258339 57.98738283 213.78657318 59.86474165 212.12890625 61.74609375 C211.60425781 62.36355469 211.07960938 62.98101562 210.5390625 63.6171875 C203.80136613 70.98901999 194.45172768 75.21976159 184.515625 76.046875 C171.60447395 76.08777622 163.19636481 73.24769963 152.12890625 66.74609375 C151.68611328 67.19412354 151.24332031 67.64215332 150.78710938 68.10375977 C148.73713942 70.17479471 146.68305192 72.24170072 144.62890625 74.30859375 C143.9328125 75.01306641 143.23671875 75.71753906 142.51953125 76.44335938 C138.52160209 80.45979747 134.42617654 84.26905859 130.13330078 87.96655273 C126.54220182 91.15480125 123.19007266 94.58101311 119.81640625 97.99609375 C119.11451172 98.7025 118.41261719 99.40890625 117.68945312 100.13671875 C116.39554804 101.4392581 115.1026831 102.74283227 113.8112793 104.04785156 C112.25515021 105.61865898 110.69373098 107.18395413 109.12890625 108.74609375 C109.52722656 109.36355469 109.92554688 109.98101562 110.3359375 110.6171875 C117.75168211 122.47155297 120.41086083 134.0969724 117.4375 147.97265625 C113.70387688 159.06417262 106.61113257 168.81987343 96.12890625 174.3203125 C90.86527411 176.61657202 85.9070246 178.41274077 80.12890625 178.74609375 C78.91203125 178.82859375 77.69515625 178.91109375 76.44140625 178.99609375 C65.04791021 178.79736998 54.21363838 174.22226878 45.82421875 166.59375 C37.00006607 156.9766435 33.43979023 145.98968799 33.77734375 133.0859375 C34.75165514 123.82997928 38.06767818 116.40689157 43.12890625 108.74609375 C40.63325374 106.2209257 38.13158174 103.70180002 35.62890625 101.18359375 C34.9328125 100.47912109 34.23671875 99.77464844 33.51953125 99.04882812 C30.14367307 95.65734098 26.74220739 92.35903302 23.11328125 89.23828125 C18.04168578 84.87239131 13.43403163 80.06708264 8.77734375 75.26757812 C8.10445312 74.58373047 7.4315625 73.89988281 6.73828125 73.1953125 C6.13983398 72.58002686 5.54138672 71.96474121 4.92480469 71.33081055 C3.06614229 69.69071027 1.43649671 68.64511618 -0.87109375 67.74609375 C-2.75172361 68.49748601 -2.75172361 68.49748601 -4.49609375 69.93359375 C-13.54947738 76.01348074 -23.14579602 76.75054411 -33.87109375 75.74609375 C-41.45619841 74.09985167 -47.43242457 70.93977383 -53.87109375 66.74609375 C-54.37447266 67.25470947 -54.87785156 67.7633252 -55.39648438 68.28735352 C-57.71861353 70.63050103 -60.04482145 72.96955977 -62.37109375 75.30859375 C-63.16257812 76.10845703 -63.9540625 76.90832031 -64.76953125 77.73242188 C-69.00280398 81.98304409 -73.3084402 86.04849131 -77.85742188 89.95727539 C-81.69217082 93.3638231 -85.26581022 97.03769611 -88.87109375 100.68359375 C-89.64582031 101.46283203 -90.42054688 102.24207031 -91.21875 103.04492188 C-93.10520132 104.94301795 -94.9892562 106.84342524 -96.87109375 108.74609375 C-96.45899658 109.34719971 -96.04689941 109.94830566 -95.62231445 110.56762695 C-95.08179443 111.36515381 -94.54127441 112.16268066 -93.984375 112.984375 C-93.44852783 113.77110596 -92.91268066 114.55783691 -92.3605957 115.3684082 C-86.37610702 124.92142169 -85.64163063 135.89461276 -87.99609375 146.68359375 C-90.92791227 157.41541319 -97.17932309 166.63791258 -106.734375 172.50390625 C-118.83379642 178.86878613 -129.65860663 180.3939619 -142.8828125 176.78125 C-153.65995772 173.04799054 -161.92222099 165.90157867 -167.24609375 155.87109375 C-172.26239197 144.93638372 -173.18240718 134.26582309 -170 122.53515625 C-165.57321924 110.61807863 -157.03330022 102.65579932 -146.01953125 96.75390625 C-136.95567314 92.70409731 -125.20354726 92.5884967 -115.87109375 95.74609375 C-111.45992942 97.60006137 -107.16306909 99.63392399 -102.87109375 101.74609375 C-102.30712891 101.17689209 -101.74316406 100.60769043 -101.16210938 100.02124023 C-98.56782606 97.40597531 -95.96949452 94.79476756 -93.37109375 92.18359375 C-92.48421875 91.28833984 -91.59734375 90.39308594 -90.68359375 89.47070312 C-86.17093181 84.94145052 -81.60947095 80.56685904 -76.75585938 76.40600586 C-73.48113939 73.52196166 -70.43397694 70.41419956 -67.37109375 67.30859375 C-66.42363281 66.35436523 -66.42363281 66.35436523 -65.45703125 65.38085938 C-63.92603601 63.83826569 -62.39821708 62.29252061 -60.87109375 60.74609375 C-62.44520976 56.74374498 -64.17426146 52.83693236 -65.96875 48.9296875 C-69.58571034 40.17695663 -69.29482671 27.58943609 -66.24609375 18.68359375 C-60.42011014 5.35537862 -52.07609381 -1.53608535 -38.87109375 -7.25390625 C-25.92830427 -11.76756813 -10.70255169 -7.6775013 0 0 Z M-53.18359375 14.55859375 C-58.57325178 22.32733789 -59.959545 30.3903049 -58.87109375 39.74609375 C-56.30640945 49.78748484 -50.7658335 57.00043095 -42.1171875 62.51953125 C-34.51767197 66.66952756 -26.04379224 67.92529411 -17.62109375 65.62109375 C-7.76916585 62.10592587 -0.46217151 55.99161917 4.56640625 46.74609375 C7.58416484 39.11604036 7.50587321 30.0472909 5.0234375 22.29296875 C0.22105563 12.0444541 -6.33014716 5.84723374 -16.87109375 1.74609375 C-30.96748493 -1.64828265 -44.09320156 3.35156613 -53.18359375 14.55859375 Z M152.6015625 15.68359375 C147.97082253 22.16908633 146.6162597 30.20951097 147.34375 38.06640625 C149.0170902 47.21399936 153.87817732 54.96957942 161.12890625 60.74609375 C169.91532767 66.39198703 178.94282202 67.78068532 189.12890625 65.74609375 C199.64790073 61.91966177 206.10942122 55.62917918 211.12890625 45.74609375 C214.55038511 37.03687483 213.84633677 28.90779492 210.3828125 20.3515625 C205.96384662 11.16947452 199.15644728 5.44600007 189.62890625 1.87109375 C174.68135619 -2.48105254 162.09209344 4.26901439 152.6015625 15.68359375 Z M-154.52734375 114.78515625 C-160.8690699 123.83144208 -163.0629136 131.61797811 -161.87109375 142.74609375 C-159.61348383 151.81479802 -154.81871146 159.18068274 -146.87109375 164.12109375 C-138.43205471 168.96272192 -129.62251496 170.41264373 -120.0859375 168.05859375 C-109.91510911 164.28579806 -103.55844242 158.53877123 -98.87109375 148.74609375 C-95.79097328 140.85592213 -95.54881474 132.34030619 -98.55859375 124.37109375 C-103.01778403 114.8024146 -108.93545293 109.25318072 -118.62109375 104.87109375 C-131.08388914 100.72510405 -146.17332677 104.50025799 -154.52734375 114.78515625 Z M52.12890625 113.74609375 C45.84936999 120.9969744 42.70675762 129.56990917 43.06640625 139.18359375 C44.38269513 148.88256446 49.10900146 157.03718476 56.7265625 163.12109375 C65.08111249 168.77230155 73.14397245 169.83891485 83.12890625 168.74609375 C91.40622383 166.98073364 97.6201096 162.02651263 103.12890625 155.74609375 C108.72734309 146.97606539 110.66475923 138.21781097 108.55078125 127.93359375 C105.929355 119.54502975 100.90771424 112.75011323 93.42578125 108.046875 C78.83660637 100.60298314 63.95450229 102.29909494 52.12890625 113.74609375 Z " fill="#65B8D7" transform="translate(329.87109375,8.25390625)"/>
<path d="M0 0 C10.1274826 5.62637922 10.1274826 5.62637922 13.54296875 7.796875 C14.30053467 8.27672852 15.05810059 8.75658203 15.83862305 9.25097656 C17.00131714 9.99299316 17.00131714 9.99299316 18.1875 10.75 C19.00323486 11.26788086 19.81896973 11.78576172 20.65942383 12.31933594 C27.79073066 16.85179848 34.90241356 21.41493601 42 26 C49.59396843 21.98128736 56.90345474 17.65185335 64.125 13 C65.04925781 12.40960938 65.97351563 11.81921875 66.92578125 11.2109375 C72.08117431 7.90974082 77.18287351 4.54833572 82.21826172 1.06640625 C84 0 84 0 86 0 C86 26.4 86 52.8 86 80 C79.07 80 72.14 80 65 80 C64.505 59.21 64.505 59.21 64 38 C57.58879337 42.30956771 57.58879337 42.30956771 51.19628906 46.64672852 C50.39416992 47.17709717 49.59205078 47.70746582 48.765625 48.25390625 C47.94868164 48.80377197 47.13173828 49.3536377 46.29003906 49.92016602 C44 51 44 51 41.98632812 50.84179688 C39.64185857 49.84822128 37.59709207 48.65353883 35.453125 47.27734375 C34.69161133 46.79257568 33.93009766 46.30780762 33.14550781 45.80834961 C32.18999023 45.19096924 31.23447266 44.57358887 30.25 43.9375 C27.1975 41.978125 24.145 40.01875 21 38 C20.67 51.86 20.34 65.72 20 80 C13.4 80 6.8 80 0 80 C0 53.6 0 27.2 0 0 Z " fill="#65B8D7" transform="translate(95,211)"/>
<path d="M0 0 C0.87454834 0.00402832 1.74909668 0.00805664 2.65014648 0.01220703 C5.86854504 0.03288975 9.08664086 0.08873213 12.3046875 0.140625 C19.5234375 0.223125 26.7421875 0.305625 34.1796875 0.390625 C34.1796875 26.790625 34.1796875 53.190625 34.1796875 80.390625 C27.5796875 80.390625 20.9796875 80.390625 14.1796875 80.390625 C14.1796875 72.140625 14.1796875 63.890625 14.1796875 55.390625 C7.58607892 55.65430153 7.58607892 55.65430153 5.14746094 58.27661133 C4.61668945 59.08380615 4.08591797 59.89100098 3.5390625 60.72265625 C2.94351563 61.60373047 2.34796875 62.48480469 1.734375 63.39257812 C1.13882813 64.32005859 0.54328125 65.24753906 -0.0703125 66.203125 C-1.28384402 68.02214219 -2.49738533 69.84115284 -3.7109375 71.66015625 C-4.23719727 72.47073486 -4.76345703 73.28131348 -5.30566406 74.11645508 C-6.05541504 75.24216919 -6.05541504 75.24216919 -6.8203125 76.390625 C-7.50105835 77.51488892 -7.50105835 77.51488892 -8.19555664 78.66186523 C-9.8203125 80.390625 -9.8203125 80.390625 -12.18041992 80.84472656 C-13.08638916 80.8237793 -13.9923584 80.80283203 -14.92578125 80.78125 C-16.40014648 80.76191406 -16.40014648 80.76191406 -17.90429688 80.7421875 C-18.92845703 80.70867187 -19.95261719 80.67515625 -21.0078125 80.640625 C-22.04357422 80.62257813 -23.07933594 80.60453125 -24.14648438 80.5859375 C-26.70535534 80.53876937 -29.26237092 80.47296557 -31.8203125 80.390625 C-30.50802355 76.88509438 -28.96222408 73.78249688 -27 70.59765625 C-26.46503906 69.72044922 -25.93007813 68.84324219 -25.37890625 67.93945312 C-24.24913475 66.10324678 -23.11892069 64.26731267 -21.98828125 62.43164062 C-21.45589844 61.55830078 -20.92351563 60.68496094 -20.375 59.78515625 C-19.88499512 58.98956299 -19.39499023 58.19396973 -18.89013672 57.37426758 C-17.66208331 55.4728642 -17.66208331 55.4728642 -17.8203125 53.390625 C-19.1932481 52.25237925 -20.62035631 51.17898072 -22.0703125 50.140625 C-27.87706201 45.73770504 -30.80895438 41.3965741 -32.8203125 34.390625 C-33.83386719 25.38599179 -33.23542185 17.83983633 -27.8203125 10.390625 C-20.6264401 1.95517056 -10.63827328 -0.23650953 0 0 Z M-12.02734375 20.69140625 C-14.27766359 24.07914266 -14.8203125 26.32759884 -14.8203125 30.390625 C-13.23192316 33.96450102 -12.10396892 35.20152072 -8.8203125 37.390625 C-6.20429695 37.66662451 -6.20429695 37.66662451 -3.27734375 37.5859375 C-2.20419922 37.57949219 -1.13105469 37.57304687 -0.02539062 37.56640625 C1.09416016 37.54964844 2.21371094 37.53289062 3.3671875 37.515625 C4.49833984 37.50660156 5.62949219 37.49757813 6.79492188 37.48828125 C9.58993379 37.46469465 12.38483709 37.42882341 15.1796875 37.390625 C15.1796875 31.120625 15.1796875 24.850625 15.1796875 18.390625 C11.28269563 18.25562528 7.39038097 18.1564919 3.4921875 18.078125 C2.38939453 18.03623047 1.28660156 17.99433594 0.15039062 17.95117188 C-6.37033058 17.77498103 -6.37033058 17.77498103 -12.02734375 20.69140625 Z " fill="#65B8D7" transform="translate(601.8203125,210.609375)"/>
<path d="M0 0 C5.46837039 4.41401139 8.88773232 9.37468635 10.328125 16.3046875 C10.328125 18.9446875 10.328125 21.5846875 10.328125 24.3046875 C4.388125 24.3046875 -1.551875 24.3046875 -7.671875 24.3046875 C-8.661875 21.9946875 -9.651875 19.6846875 -10.671875 17.3046875 C-15.82387809 13.23731664 -21.2859279 12.97437989 -27.671875 13.3046875 C-31.45274728 13.84830881 -31.45274728 13.84830881 -34.671875 15.3046875 C-36.18980144 17.80109878 -36.18980144 17.80109878 -36.671875 20.3046875 C-32.01131451 25.48308804 -27.2598444 26.47358225 -20.62768555 27.64746094 C-8.87918757 29.73521471 0.18114248 31.91986629 8.05078125 41.4375 C11.75363573 46.85023529 10.80459665 54.05610219 10.328125 60.3046875 C8.92104989 66.18727863 6.07377584 70.14376526 1.5 74.015625 C-5.75267417 78.32026974 -12.21526778 78.79921583 -20.484375 78.7421875 C-21.50080078 78.76216797 -22.51722656 78.78214844 -23.56445312 78.80273438 C-33.61154662 78.79633087 -42.64275951 76.39297658 -50.01171875 69.28125 C-55.47903825 62.77192372 -56.13810607 56.58028905 -55.671875 48.3046875 C-49.731875 48.3046875 -43.791875 48.3046875 -37.671875 48.3046875 C-37.011875 50.2846875 -36.351875 52.2646875 -35.671875 54.3046875 C-32.66842172 58.21435513 -28.29399421 59.16848094 -23.671875 60.3046875 C-18.10606917 60.88046052 -14.47485619 59.99435696 -9.671875 57.3046875 C-8.18018076 55.50597646 -8.18018076 55.50597646 -8.671875 53.3046875 C-12.20644887 48.51591001 -16.00454451 47.17385556 -21.671875 46.3046875 C-23.29416016 46.11519531 -23.29416016 46.11519531 -24.94921875 45.921875 C-35.40048476 44.6736239 -44.17815706 41.9768273 -51.671875 34.3046875 C-56.02823014 28.72310748 -56.40207695 22.70146823 -56.1796875 15.78515625 C-55.26211889 9.49628213 -52.56702864 4.96822885 -47.9140625 0.6875 C-34.68064617 -8.67002033 -13.46485526 -8.54349003 0 0 Z " fill="#65B8D7" transform="translate(55.671875,212.6953125)"/>
<path d="M0 0 C10.04603002 7.16544793 15.97285269 16.46218458 18.05859375 28.58203125 C19.11395427 39.93121596 16.87322259 50.79347964 10.125 60.0625 C3.00859394 68.52648082 -5.78319233 74.11934037 -16.6875 76.3125 C-28.63175289 77.33725306 -39.90239044 75.17430188 -49.6953125 68 C-57.31523339 61.54547878 -63.96831848 52.53497667 -64.86450195 42.28881836 C-65.28920484 27.48174665 -64.12797932 16.63964423 -53.6875 5.3125 C-39.40058155 -9.80064988 -17.01909057 -10.39090734 0 0 Z M-41.625 20.1875 C-46.23564307 27.17332283 -47.72742617 33.02895015 -46.6875 41.3125 C-44.64542469 48.67167706 -39.19345412 53.67950271 -32.7421875 57.44921875 C-26.69081493 60.15641174 -20.68950973 59.62521596 -14.484375 57.58984375 C-8.47969223 54.94274123 -4.33299235 50.93978971 -1.6171875 44.953125 C0.61680316 38.47253949 1.1956778 32.55354091 -1.6328125 26.18359375 C-4.98314998 20.3371439 -9.43705416 15.90160686 -15.5 12.9375 C-25.36809285 11.00257983 -34.58129261 12.34241272 -41.625 20.1875 Z " fill="#65B8D7" transform="translate(548.6875,217.6875)"/>
<path d="M0 0 C18.48 0 36.96 0 56 0 C56 5.94 56 11.88 56 18 C44.12 18 32.24 18 20 18 C20 22.29 20 26.58 20 31 C29.9 31 39.8 31 50 31 C50 36.94 50 42.88 50 49 C40.1 49 30.2 49 20 49 C20 53.29 20 57.58 20 62 C31.88 62 43.76 62 56 62 C56 67.94 56 73.88 56 80 C37.52 80 19.04 80 0 80 C0 53.6 0 27.2 0 0 Z " fill="#65B8D7" transform="translate(643,211)"/>
<path d="M0 0 C18.48 0 36.96 0 56 0 C56 5.94 56 11.88 56 18 C44.12 18 32.24 18 20 18 C20 22.29 20 26.58 20 31 C29.9 31 39.8 31 50 31 C50 36.94 50 42.88 50 49 C40.1 49 30.2 49 20 49 C20 53.29 20 57.58 20 62 C31.88 62 43.76 62 56 62 C56 67.94 56 73.88 56 80 C37.52 80 19.04 80 0 80 C0 53.6 0 27.2 0 0 Z " fill="#65B8D7" transform="translate(323,211)"/>
<path d="M0 0 C11.075625 -0.1546875 11.075625 -0.1546875 22.375 -0.3125 C24.6854834 -0.35802002 26.9959668 -0.40354004 29.37646484 -0.45043945 C31.23794103 -0.46506251 33.09943339 -0.47779886 34.9609375 -0.48828125 C35.90300049 -0.51386108 36.84506348 -0.53944092 37.81567383 -0.5657959 C46.0192897 -0.5711105 52.41476702 1.92091756 58.65625 7.28125 C59.2646875 8.0134375 59.873125 8.745625 60.5 9.5 C61.1290625 10.2321875 61.758125 10.964375 62.40625 11.71875 C66.61191505 17.7386235 67.5448425 25.02723118 66.75390625 32.24609375 C64.83832892 40.94247577 60.22711506 47.02597192 53 52 C46.41111589 55.8141535 40.02513717 55.34627951 32.5625 55.1875 C31.35400391 55.17396484 30.14550781 55.16042969 28.90039062 55.14648438 C25.93340055 55.11130267 22.96664145 55.05750131 20 55 C20 63.25 20 71.5 20 80 C13.4 80 6.8 80 0 80 C0 53.6 0 27.2 0 0 Z M20 18 C20 24.27 20 30.54 20 37 C23.54295358 37.13534203 27.08070854 37.23428424 30.625 37.3125 C31.62402344 37.35439453 32.62304688 37.39628906 33.65234375 37.43945312 C40.09082062 37.5896226 40.09082062 37.5896226 45.64453125 34.69921875 C48.57444111 31.34172668 49.07917734 29.43393129 49 25 C47.78488095 22.12208646 46.86316964 20.54283989 44.21191406 18.87548828 C41.58950145 17.83752232 39.61298159 17.77194207 36.796875 17.8046875 C35.8171875 17.81113281 34.8375 17.81757813 33.828125 17.82421875 C32.81234375 17.84097656 31.7965625 17.85773438 30.75 17.875 C29.71875 17.88402344 28.6875 17.89304688 27.625 17.90234375 C25.08323384 17.92587862 22.54158728 17.96174869 20 18 Z " fill="#65B8D7" transform="translate(187,211)"/>
<path d="M0 0 C7.23315976 5.15940411 12.27768623 11.10137886 14 20 C14.94956042 30.17180628 13.27015874 38.22406046 6.875 46.3125 C1.72109491 51.81148297 -5.48264681 55.44182419 -13.0078125 56.203125 C-22.32295821 56.40936439 -29.84198099 54.04637196 -37.0234375 48.01953125 C-42.83382435 42.08283165 -45.87215925 34.4219517 -46.06640625 26.18359375 C-45.67883287 16.98753447 -43.06762409 9.59774322 -36.375 3.125 C-25.61989084 -5.41048063 -11.95392578 -6.76001441 0 0 Z " fill="#65B8D7" transform="translate(526,16)"/>
<path d="M0 0 C6.48501805 5.03922398 10.27381152 12.38744507 11.70703125 20.40234375 C12.65195072 30.21624423 9.34509797 37.41506888 4.1171875 45.52734375 C-2.2403712 51.88490245 -9.51918735 54.60092492 -18.3828125 55.08984375 C-26.97494313 54.83800544 -34.27867328 51.40466058 -40.41796875 45.50390625 C-47.3377896 38.01152339 -48.57136511 30.8130162 -48.37890625 20.9296875 C-47.57915609 12.59811307 -43.10965951 6.31012113 -37.0703125 0.71484375 C-25.66222078 -7.64282344 -11.8458685 -7.35337875 0 0 Z " fill="#65B8D7" transform="translate(322.0703125,17.28515625)"/>
<path d="M0 0 C8.90881067 4.79058687 13.90115974 10.95347922 17.0625 20.4375 C17.8876916 31.71962784 16.99887744 39.7711394 9.8125 48.75 C5.04589559 53.90697287 -1.14720787 57.1602724 -8.1953125 57.67578125 C-19.4452121 57.89168841 -26.79501714 56.15385866 -35.2109375 48.375 C-41.45906227 41.36352966 -42.39163879 33.32203166 -42.21484375 24.2421875 C-41.63425911 16.27754756 -37.91663135 9.70857632 -31.9375 4.4375 C-22.55479582 -1.76408187 -10.80844327 -4.42937955 0 0 Z " fill="#65B8D7" transform="translate(212.9375,116.5625)"/>
<path d="M0 0 C0.928125 0.598125 1.85625 1.19625 2.8125 1.8125 C9.30006103 8.30006103 12.01446415 15.70606236 12.375 24.8125 C12.21167178 32.97891106 9.63379536 40.4100303 3.93359375 46.39453125 C-3.80208024 52.81748481 -11.48389644 54.91355032 -21.44921875 54.4453125 C-29.83196588 53.39401088 -35.56887241 50.4338826 -41.30859375 44.21875 C-46.56190086 37.32757577 -48.56256726 29.57915068 -48 21 C-45.82027765 10.90275674 -41.33780821 4.10309067 -33 -2 C-23.00860256 -8.26392246 -9.36003971 -6.27031787 0 0 Z " fill="#65B8D7" transform="translate(424,120)"/>
<path d="M0 0 C-0.47409648 4.31730413 -3.03396703 6.33647461 -6.0625 9.25 C-6.98160156 10.14203125 -7.90070313 11.0340625 -8.84765625 11.953125 C-9.55792969 12.62859375 -10.26820313 13.3040625 -11 14 C-12.12148438 13.54173828 -12.12148438 13.54173828 -13.265625 13.07421875 C-21.61624121 9.79361952 -28.80179629 8.96862698 -37.1875 12.5625 C-42.58428535 15.57866746 -45.87662164 19.80195692 -47.91796875 25.61328125 C-49.67407514 33.13793106 -48.82205377 39.43928152 -44.73828125 46.0390625 C-40.60253773 51.36454045 -35.82273077 54.50026296 -29.1015625 55.37890625 C-23.97823622 55.57893536 -20.04025878 55.36536582 -15.5 52.875 C-12 51 -12 51 -10.078125 51.53125 C-7.25774591 53.52460063 -5.38885736 55.91997451 -3.25 58.625 C-2.45078125 59.62789063 -1.6515625 60.63078125 -0.828125 61.6640625 C-0.22484375 62.43492187 0.3784375 63.20578125 1 64 C-1.99553171 67.19100733 -4.49933752 69.58233679 -8.5625 71.25 C-9.30628906 71.56453125 -10.05007813 71.8790625 -10.81640625 72.203125 C-20.67501191 75.8008988 -34.0032946 75.5184702 -43.61328125 71.32421875 C-53.8624825 65.63767337 -62.33704772 57.28189302 -66 46 C-69.22048401 34.37825334 -68.36940348 22.85304959 -63 12 C-56.59100538 1.59578796 -47.73857476 -4.81259138 -36 -8 C-23.35324337 -10.63334322 -10.29429954 -7.79028073 0 0 Z " fill="#65B8D7" transform="translate(485,217)"/>
<path d="M0 0 C6.6 0 13.2 0 20 0 C20 20.46 20 40.92 20 62 C32.54 62 45.08 62 58 62 C58 67.61 58 73.22 58 79 C38.86 79 19.72 79 0 79 C0 52.93 0 26.86 0 0 Z " fill="#65B8D7" transform="translate(261,212)"/>
<path d="M0 0 C6.93 0 13.86 0 21 0 C21 26.4 21 52.8 21 80 C14.07 80 7.14 80 0 80 C0 53.6 0 27.2 0 0 Z " fill="#65B8D7" transform="translate(70,211)"/>
</svg>
